<?xml version="1.0" encoding="UTF-8" standalone="no"?>
<!DOCTYPE svg PUBLIC "-//W3C//DTD SVG 1.1//EN"
 "http://www.w3.org/Graphics/SVG/1.1/DTD/svg11.dtd">
<!-- Generated by graphviz version 2.47.0 (20210316.0004)
 -->
<!-- Title: dbml Pages: 1 -->
<svg width="1697pt" height="2826pt"
 viewBox="0.00 0.00 1697.22 2826.49" xmlns="http://www.w3.org/2000/svg" xmlns:xlink="http://www.w3.org/1999/xlink">
<g id="graph0" class="graph" transform="scale(1 1) rotate(0) translate(4 2822.49)">
<title>dbml</title>
<!-- BoatEquipment -->
<g id="BoatEquipment" class="node">
<title>BoatEquipment</title>
<ellipse fill="none" stroke="black" stroke-width="0" cx="400.22" cy="-2645.96" rx="279.11" ry="172.57"/>
<polygon fill="#1d71b8" stroke="transparent" points="205.22,-2705.96 205.22,-2765.96 596.22,-2765.96 596.22,-2705.96 205.22,-2705.96"/>
<polygon fill="none" stroke="#29235c" points="205.22,-2705.96 205.22,-2765.96 596.22,-2765.96 596.22,-2705.96 205.22,-2705.96"/>
<text text-anchor="start" x="229.1" y="-2727.16" font-family="Helvetica,sans-Serif" font-weight="bold" font-size="32.00" fill="#ffffff"> &#160;&#160;&#160;&#160;&#160;&#160;BoatEquipment &#160;&#160;&#160;&#160;&#160;&#160;</text>
<polygon fill="#e7e2dd" stroke="transparent" points="205.22,-2645.96 205.22,-2705.96 596.22,-2705.96 596.22,-2645.96 205.22,-2645.96"/>
<polygon fill="none" stroke="#29235c" points="205.22,-2645.96 205.22,-2705.96 596.22,-2705.96 596.22,-2645.96 205.22,-2645.96"/>
<text text-anchor="start" x="216.22" y="-2667.16" font-family="Helvetica,sans-Serif" font-weight="bold" font-size="32.00" fill="#29235c">id</text>
<text text-anchor="start" x="241.11" y="-2667.16" font-family="Helvetica,sans-Serif" font-size="32.00" fill="#29235c"> &#160;&#160;&#160;</text>
<text text-anchor="start" x="443" y="-2667.16" font-family="Helvetica,sans-Serif" font-style="italic" font-size="32.00" fill="#29235c">INTEGER</text>
<polygon fill="#e7e2dd" stroke="transparent" points="205.22,-2585.96 205.22,-2645.96 596.22,-2645.96 596.22,-2585.96 205.22,-2585.96"/>
<polygon fill="none" stroke="#29235c" points="205.22,-2585.96 205.22,-2645.96 596.22,-2645.96 596.22,-2585.96 205.22,-2585.96"/>
<text text-anchor="start" x="216.22" y="-2606.16" font-family="Helvetica,sans-Serif" font-size="32.00" fill="#29235c">sailboat_id &#160;&#160;&#160;</text>
<text text-anchor="start" x="443" y="-2607.16" font-family="Helvetica,sans-Serif" font-style="italic" font-size="32.00" fill="#29235c">INTEGER</text>
<polygon fill="#e7e2dd" stroke="transparent" points="205.22,-2525.96 205.22,-2585.96 596.22,-2585.96 596.22,-2525.96 205.22,-2525.96"/>
<polygon fill="none" stroke="#29235c" points="205.22,-2525.96 205.22,-2585.96 596.22,-2585.96 596.22,-2525.96 205.22,-2525.96"/>
<text text-anchor="start" x="215.91" y="-2546.16" font-family="Helvetica,sans-Serif" font-size="32.00" fill="#29235c">equipment_id &#160;&#160;&#160;</text>
<text text-anchor="start" x="443.11" y="-2547.16" font-family="Helvetica,sans-Serif" font-style="italic" font-size="32.00" fill="#29235c">INTEGER</text>
<polygon fill="none" stroke="#29235c" stroke-width="2" points="203.72,-2524.96 203.72,-2766.96 596.72,-2766.96 596.72,-2524.96 203.72,-2524.96"/>
</g>
<!-- Equipment -->
<g id="Equipment" class="node">
<title>Equipment</title>
<ellipse fill="none" stroke="black" stroke-width="0" cx="1262.83" cy="-2675.96" rx="214.01" ry="130.22"/>
<polygon fill="#1d71b8" stroke="transparent" points="1113.83,-2705.96 1113.83,-2765.96 1412.83,-2765.96 1412.83,-2705.96 1113.83,-2705.96"/>
<polygon fill="none" stroke="#29235c" points="1113.83,-2705.96 1113.83,-2765.96 1412.83,-2765.96 1412.83,-2705.96 1113.83,-2705.96"/>
<text text-anchor="start" x="1124.62" y="-2727.16" font-family="Helvetica,sans-Serif" font-weight="bold" font-size="32.00" fill="#ffffff"> &#160;&#160;&#160;&#160;&#160;&#160;Equipment &#160;&#160;&#160;&#160;&#160;&#160;</text>
<polygon fill="#e7e2dd" stroke="transparent" points="1113.83,-2645.96 1113.83,-2705.96 1412.83,-2705.96 1412.83,-2645.96 1113.83,-2645.96"/>
<polygon fill="none" stroke="#29235c" points="1113.83,-2645.96 1113.83,-2705.96 1412.83,-2705.96 1412.83,-2645.96 1113.83,-2645.96"/>
<text text-anchor="start" x="1124.83" y="-2667.16" font-family="Helvetica,sans-Serif" font-weight="bold" font-size="32.00" fill="#29235c">id</text>
<text text-anchor="start" x="1149.72" y="-2667.16" font-family="Helvetica,sans-Serif" font-size="32.00" fill="#29235c"> &#160;&#160;&#160;</text>
<text text-anchor="start" x="1259.61" y="-2667.16" font-family="Helvetica,sans-Serif" font-style="italic" font-size="32.00" fill="#29235c">INTEGER</text>
<polygon fill="#e7e2dd" stroke="transparent" points="1113.83,-2585.96 1113.83,-2645.96 1412.83,-2645.96 1412.83,-2585.96 1113.83,-2585.96"/>
<polygon fill="none" stroke="#29235c" points="1113.83,-2585.96 1113.83,-2645.96 1412.83,-2645.96 1412.83,-2585.96 1113.83,-2585.96"/>
<text text-anchor="start" x="1124.83" y="-2606.16" font-family="Helvetica,sans-Serif" font-size="32.00" fill="#29235c">name &#160;&#160;&#160;</text>
<text text-anchor="start" x="1245.4" y="-2607.16" font-family="Helvetica,sans-Serif" font-style="italic" font-size="32.00" fill="#29235c">VARCHAR</text>
<polygon fill="none" stroke="#29235c" stroke-width="2" points="1112.33,-2584.96 1112.33,-2766.96 1413.33,-2766.96 1413.33,-2584.96 1112.33,-2584.96"/>
</g>
<!-- BoatEquipment&#45;&gt;Equipment -->
<!-- BoatEquipment&#45;&gt;Equipment -->
<g id="edge2" class="edge">
<title>BoatEquipment:e&#45;&gt;Equipment:w</title>
<path fill="none" stroke="#29235c" stroke-width="3" d="M597.22,-2555.96C829.06,-2555.96 876.19,-2672.47 1102.61,-2675.88"/>
<polygon fill="#29235c" stroke="#29235c" stroke-width="3" points="1102.8,-2679.39 1112.83,-2675.96 1102.86,-2672.39 1102.8,-2679.39"/>
<text text-anchor="middle" x="1106.61" y="-2685.56" font-family="Helvetica,sans-Serif" font-size="32.00" fill="#29235c">*</text>
<text text-anchor="middle" x="606.12" y="-2565.56" font-family="Helvetica,sans-Serif" font-size="32.00" fill="#29235c">1</text>
</g>
<!-- Sailboat -->
<g id="Sailboat" class="node">
<title>Sailboat</title>
<ellipse fill="none" stroke="black" stroke-width="0" cx="1262.83" cy="-1907.96" rx="214.92" ry="172.57"/>
<polygon fill="#1d71b8" stroke="transparent" points="1112.83,-1967.96 1112.83,-2027.96 1412.83,-2027.96 1412.83,-1967.96 1112.83,-1967.96"/>
<polygon fill="none" stroke="#29235c" points="1112.83,-1967.96 1112.83,-2027.96 1412.83,-2027.96 1412.83,-1967.96 1112.83,-1967.96"/>
<text text-anchor="start" x="1142.79" y="-1989.16" font-family="Helvetica,sans-Serif" font-weight="bold" font-size="32.00" fill="#ffffff"> &#160;&#160;&#160;&#160;&#160;&#160;Sailboat &#160;&#160;&#160;&#160;&#160;&#160;</text>
<polygon fill="#e7e2dd" stroke="transparent" points="1112.83,-1907.96 1112.83,-1967.96 1412.83,-1967.96 1412.83,-1907.96 1112.83,-1907.96"/>
<polygon fill="none" stroke="#29235c" points="1112.83,-1907.96 1112.83,-1967.96 1412.83,-1967.96 1412.83,-1907.96 1112.83,-1907.96"/>
<text text-anchor="start" x="1123.83" y="-1929.16" font-family="Helvetica,sans-Serif" font-weight="bold" font-size="32.00" fill="#29235c">id</text>
<text text-anchor="start" x="1148.72" y="-1929.16" font-family="Helvetica,sans-Serif" font-size="32.00" fill="#29235c"> &#160;&#160;&#160;</text>
<text text-anchor="start" x="1259.61" y="-1929.16" font-family="Helvetica,sans-Serif" font-style="italic" font-size="32.00" fill="#29235c">INTEGER</text>
<polygon fill="#e7e2dd" stroke="transparent" points="1112.83,-1847.96 1112.83,-1907.96 1412.83,-1907.96 1412.83,-1847.96 1112.83,-1847.96"/>
<polygon fill="none" stroke="#29235c" points="1112.83,-1847.96 1112.83,-1907.96 1412.83,-1907.96 1412.83,-1847.96 1112.83,-1847.96"/>
<text text-anchor="start" x="1123.48" y="-1868.16" font-family="Helvetica,sans-Serif" font-size="32.00" fill="#29235c">model &#160;&#160;&#160;</text>
<text text-anchor="start" x="1245.62" y="-1869.16" font-family="Helvetica,sans-Serif" font-style="italic" font-size="32.00" fill="#29235c">VARCHAR</text>
<polygon fill="#e7e2dd" stroke="transparent" points="1112.83,-1787.96 1112.83,-1847.96 1412.83,-1847.96 1412.83,-1787.96 1112.83,-1787.96"/>
<polygon fill="none" stroke="#29235c" points="1112.83,-1787.96 1112.83,-1847.96 1412.83,-1847.96 1412.83,-1787.96 1112.83,-1787.96"/>
<text text-anchor="start" x="1123.83" y="-1808.16" font-family="Helvetica,sans-Serif" font-size="32.00" fill="#29235c">size &#160;&#160;&#160;</text>
<text text-anchor="start" x="1298.71" y="-1809.16" font-family="Helvetica,sans-Serif" font-style="italic" font-size="32.00" fill="#29235c">FLOAT</text>
<polygon fill="none" stroke="#29235c" stroke-width="2" points="1111.83,-1786.96 1111.83,-2028.96 1413.83,-2028.96 1413.83,-1786.96 1111.83,-1786.96"/>
</g>
<!-- BoatEquipment&#45;&gt;Sailboat -->
<!-- BoatEquipment&#45;&gt;Sailboat -->
<g id="edge4" class="edge">
<title>BoatEquipment:e&#45;&gt;Sailboat:w</title>
<path fill="none" stroke="#29235c" stroke-width="3" d="M597.22,-2615.96C972.11,-2615.96 737.85,-1950.15 1101.73,-1938.13"/>
<polygon fill="#29235c" stroke="#29235c" stroke-width="3" points="1101.89,-1941.62 1111.83,-1937.96 1101.77,-1934.62 1101.89,-1941.62"/>
<text text-anchor="middle" x="1105.61" y="-1909.16" font-family="Helvetica,sans-Serif" font-size="32.00" fill="#29235c">*</text>
<text text-anchor="middle" x="606.12" y="-2625.56" font-family="Helvetica,sans-Serif" font-size="32.00" fill="#29235c">1</text>
</g>
<!-- BoatMaintenanceAssignment -->
<g id="BoatMaintenanceAssignment" class="node">
<title>BoatMaintenanceAssignment</title>
<ellipse fill="none" stroke="black" stroke-width="0" cx="400.22" cy="-1472.96" rx="400.45" ry="172.57"/>
<polygon fill="#1d71b8" stroke="transparent" points="119.22,-1532.96 119.22,-1592.96 681.22,-1592.96 681.22,-1532.96 119.22,-1532.96"/>
<polygon fill="none" stroke="#29235c" points="119.22,-1532.96 119.22,-1592.96 681.22,-1592.96 681.22,-1532.96 119.22,-1532.96"/>
<text text-anchor="start" x="129.91" y="-1554.16" font-family="Helvetica,sans-Serif" font-weight="bold" font-size="32.00" fill="#ffffff"> &#160;&#160;&#160;&#160;&#160;&#160;BoatMaintenanceAssignment &#160;&#160;&#160;&#160;&#160;&#160;</text>
<polygon fill="#e7e2dd" stroke="transparent" points="119.22,-1472.96 119.22,-1532.96 681.22,-1532.96 681.22,-1472.96 119.22,-1472.96"/>
<polygon fill="none" stroke="#29235c" points="119.22,-1472.96 119.22,-1532.96 681.22,-1532.96 681.22,-1472.96 119.22,-1472.96"/>
<text text-anchor="start" x="130.22" y="-1494.16" font-family="Helvetica,sans-Serif" font-weight="bold" font-size="32.00" fill="#29235c">id</text>
<text text-anchor="start" x="155.11" y="-1494.16" font-family="Helvetica,sans-Serif" font-size="32.00" fill="#29235c"> &#160;&#160;&#160;</text>
<text text-anchor="start" x="528" y="-1494.16" font-family="Helvetica,sans-Serif" font-style="italic" font-size="32.00" fill="#29235c">INTEGER</text>
<polygon fill="#e7e2dd" stroke="transparent" points="119.22,-1412.96 119.22,-1472.96 681.22,-1472.96 681.22,-1412.96 119.22,-1412.96"/>
<polygon fill="none" stroke="#29235c" points="119.22,-1412.96 119.22,-1472.96 681.22,-1472.96 681.22,-1412.96 119.22,-1412.96"/>
<text text-anchor="start" x="130.22" y="-1433.16" font-family="Helvetica,sans-Serif" font-size="32.00" fill="#29235c">sailboat_id &#160;&#160;&#160;</text>
<text text-anchor="start" x="528" y="-1434.16" font-family="Helvetica,sans-Serif" font-style="italic" font-size="32.00" fill="#29235c">INTEGER</text>
<polygon fill="#e7e2dd" stroke="transparent" points="119.22,-1352.96 119.22,-1412.96 681.22,-1412.96 681.22,-1352.96 119.22,-1352.96"/>
<polygon fill="none" stroke="#29235c" points="119.22,-1352.96 119.22,-1412.96 681.22,-1412.96 681.22,-1352.96 119.22,-1352.96"/>
<text text-anchor="start" x="130.22" y="-1373.16" font-family="Helvetica,sans-Serif" font-size="32.00" fill="#29235c">maintenance_person_id &#160;&#160;&#160;</text>
<text text-anchor="start" x="528" y="-1374.16" font-family="Helvetica,sans-Serif" font-style="italic" font-size="32.00" fill="#29235c">INTEGER</text>
<polygon fill="none" stroke="#29235c" stroke-width="2" points="118.22,-1351.96 118.22,-1593.96 682.22,-1593.96 682.22,-1351.96 118.22,-1351.96"/>
</g>
<!-- BoatMaintenanceAssignment&#45;&gt;Sailboat -->
<!-- BoatMaintenanceAssignment&#45;&gt;Sailboat -->
<g id="edge8" class="edge">
<title>BoatMaintenanceAssignment:e&#45;&gt;Sailboat:w</title>
<path fill="none" stroke="#29235c" stroke-width="3" d="M682.22,-1442.96C798.74,-1442.96 761.35,-1565.87 836.44,-1654.96 947.34,-1786.53 936.8,-1932.15 1101.76,-1937.79"/>
<polygon fill="#29235c" stroke="#29235c" stroke-width="3" points="1101.77,-1941.29 1111.83,-1937.96 1101.89,-1934.29 1101.77,-1941.29"/>
<text text-anchor="middle" x="1105.61" y="-1947.56" font-family="Helvetica,sans-Serif" font-size="32.00" fill="#29235c">*</text>
<text text-anchor="middle" x="691.12" y="-1414.16" font-family="Helvetica,sans-Serif" font-size="32.00" fill="#29235c">1</text>
</g>
<!-- MaintenancePerson -->
<g id="MaintenancePerson" class="node">
<title>MaintenancePerson</title>
<ellipse fill="none" stroke="black" stroke-width="0" cx="1262.83" cy="-1472.96" rx="307.68" ry="172.57"/>
<polygon fill="#1d71b8" stroke="transparent" points="1047.83,-1532.96 1047.83,-1592.96 1478.83,-1592.96 1478.83,-1532.96 1047.83,-1532.96"/>
<polygon fill="none" stroke="#29235c" points="1047.83,-1532.96 1047.83,-1592.96 1478.83,-1592.96 1478.83,-1532.96 1047.83,-1532.96"/>
<text text-anchor="start" x="1058.82" y="-1554.16" font-family="Helvetica,sans-Serif" font-weight="bold" font-size="32.00" fill="#ffffff"> &#160;&#160;&#160;&#160;&#160;&#160;MaintenancePerson &#160;&#160;&#160;&#160;&#160;&#160;</text>
<polygon fill="#e7e2dd" stroke="transparent" points="1047.83,-1472.96 1047.83,-1532.96 1478.83,-1532.96 1478.83,-1472.96 1047.83,-1472.96"/>
<polygon fill="none" stroke="#29235c" points="1047.83,-1472.96 1047.83,-1532.96 1478.83,-1532.96 1478.83,-1472.96 1047.83,-1472.96"/>
<text text-anchor="start" x="1058.83" y="-1494.16" font-family="Helvetica,sans-Serif" font-weight="bold" font-size="32.00" fill="#29235c">id</text>
<text text-anchor="start" x="1083.72" y="-1494.16" font-family="Helvetica,sans-Serif" font-size="32.00" fill="#29235c"> &#160;&#160;&#160;</text>
<text text-anchor="start" x="1325.61" y="-1494.16" font-family="Helvetica,sans-Serif" font-style="italic" font-size="32.00" fill="#29235c">INTEGER</text>
<polygon fill="#e7e2dd" stroke="transparent" points="1047.83,-1412.96 1047.83,-1472.96 1478.83,-1472.96 1478.83,-1412.96 1047.83,-1412.96"/>
<polygon fill="none" stroke="#29235c" points="1047.83,-1412.96 1047.83,-1472.96 1478.83,-1472.96 1478.83,-1412.96 1047.83,-1412.96"/>
<text text-anchor="start" x="1058.83" y="-1433.16" font-family="Helvetica,sans-Serif" font-size="32.00" fill="#29235c">name &#160;&#160;&#160;</text>
<text text-anchor="start" x="1311.4" y="-1434.16" font-family="Helvetica,sans-Serif" font-style="italic" font-size="32.00" fill="#29235c">VARCHAR</text>
<polygon fill="#e7e2dd" stroke="transparent" points="1047.83,-1352.96 1047.83,-1412.96 1478.83,-1412.96 1478.83,-1352.96 1047.83,-1352.96"/>
<polygon fill="none" stroke="#29235c" points="1047.83,-1352.96 1047.83,-1412.96 1478.83,-1412.96 1478.83,-1352.96 1047.83,-1352.96"/>
<text text-anchor="start" x="1058.83" y="-1373.16" font-family="Helvetica,sans-Serif" font-size="32.00" fill="#29235c">skills &#160;&#160;&#160;</text>
<text text-anchor="start" x="1311.4" y="-1374.16" font-family="Helvetica,sans-Serif" font-style="italic" font-size="32.00" fill="#29235c">VARCHAR</text>
<polygon fill="none" stroke="#29235c" stroke-width="2" points="1046.33,-1351.96 1046.33,-1593.96 1479.33,-1593.96 1479.33,-1351.96 1046.33,-1351.96"/>
</g>
<!-- BoatMaintenanceAssignment&#45;&gt;MaintenancePerson -->
<!-- BoatMaintenanceAssignment&#45;&gt;MaintenancePerson -->
<g id="edge6" class="edge">
<title>BoatMaintenanceAssignment:e&#45;&gt;MaintenancePerson:w</title>
<path fill="none" stroke="#29235c" stroke-width="3" d="M682.22,-1382.96C849.32,-1382.96 875.21,-1498.09 1036.52,-1502.81"/>
<polygon fill="#29235c" stroke="#29235c" stroke-width="3" points="1036.78,-1506.32 1046.83,-1502.96 1036.88,-1499.32 1036.78,-1506.32"/>
<text text-anchor="middle" x="1040.61" y="-1474.16" font-family="Helvetica,sans-Serif" font-size="32.00" fill="#29235c">*</text>
<text text-anchor="middle" x="691.12" y="-1354.16" font-family="Helvetica,sans-Serif" font-size="32.00" fill="#29235c">1</text>
</g>
<!-- CampAttendance -->
<g id="CampAttendance" class="node">
<title>CampAttendance</title>
<ellipse fill="none" stroke="black" stroke-width="0" cx="400.22" cy="-619.96" rx="280.94" ry="214.92"/>
<polygon fill="#1d71b8" stroke="transparent" points="204.22,-709.96 204.22,-769.96 597.22,-769.96 597.22,-709.96 204.22,-709.96"/>
<polygon fill="none" stroke="#29235c" points="204.22,-709.96 204.22,-769.96 597.22,-769.96 597.22,-709.96 204.22,-709.96"/>
<text text-anchor="start" x="214.88" y="-731.16" font-family="Helvetica,sans-Serif" font-weight="bold" font-size="32.00" fill="#ffffff"> &#160;&#160;&#160;&#160;&#160;&#160;CampAttendance &#160;&#160;&#160;&#160;&#160;&#160;</text>
<polygon fill="#e7e2dd" stroke="transparent" points="204.22,-649.96 204.22,-709.96 597.22,-709.96 597.22,-649.96 204.22,-649.96"/>
<polygon fill="none" stroke="#29235c" points="204.22,-649.96 204.22,-709.96 597.22,-709.96 597.22,-649.96 204.22,-649.96"/>
<text text-anchor="start" x="215.22" y="-671.16" font-family="Helvetica,sans-Serif" font-weight="bold" font-size="32.00" fill="#29235c">id</text>
<text text-anchor="start" x="240.11" y="-671.16" font-family="Helvetica,sans-Serif" font-size="32.00" fill="#29235c"> &#160;&#160;&#160;</text>
<text text-anchor="start" x="444" y="-671.16" font-family="Helvetica,sans-Serif" font-style="italic" font-size="32.00" fill="#29235c">INTEGER</text>
<polygon fill="#e7e2dd" stroke="transparent" points="204.22,-589.96 204.22,-649.96 597.22,-649.96 597.22,-589.96 204.22,-589.96"/>
<polygon fill="none" stroke="#29235c" points="204.22,-589.96 204.22,-649.96 597.22,-649.96 597.22,-589.96 204.22,-589.96"/>
<text text-anchor="start" x="215.22" y="-610.16" font-family="Helvetica,sans-Serif" font-size="32.00" fill="#29235c">camper_id &#160;&#160;&#160;</text>
<text text-anchor="start" x="444" y="-611.16" font-family="Helvetica,sans-Serif" font-style="italic" font-size="32.00" fill="#29235c">INTEGER</text>
<polygon fill="#e7e2dd" stroke="transparent" points="204.22,-529.96 204.22,-589.96 597.22,-589.96 597.22,-529.96 204.22,-529.96"/>
<polygon fill="none" stroke="#29235c" points="204.22,-529.96 204.22,-589.96 597.22,-589.96 597.22,-529.96 204.22,-529.96"/>
<text text-anchor="start" x="215.22" y="-550.16" font-family="Helvetica,sans-Serif" font-size="32.00" fill="#29235c">instructor_id &#160;&#160;&#160;</text>
<text text-anchor="start" x="444" y="-551.16" font-family="Helvetica,sans-Serif" font-style="italic" font-size="32.00" fill="#29235c">INTEGER</text>
<polygon fill="#e7e2dd" stroke="transparent" points="204.22,-469.96 204.22,-529.96 597.22,-529.96 597.22,-469.96 204.22,-469.96"/>
<polygon fill="none" stroke="#29235c" points="204.22,-469.96 204.22,-529.96 597.22,-529.96 597.22,-469.96 204.22,-469.96"/>
<text text-anchor="start" x="215.22" y="-490.16" font-family="Helvetica,sans-Serif" font-size="32.00" fill="#29235c">price_list_id &#160;&#160;&#160;</text>
<text text-anchor="start" x="444" y="-491.16" font-family="Helvetica,sans-Serif" font-style="italic" font-size="32.00" fill="#29235c">INTEGER</text>
<polygon fill="none" stroke="#29235c" stroke-width="2" points="202.72,-468.96 202.72,-770.96 597.72,-770.96 597.72,-468.96 202.72,-468.96"/>
</g>
<!-- JuniorCamper -->
<g id="JuniorCamper" class="node">
<title>JuniorCamper</title>
<ellipse fill="none" stroke="black" stroke-width="0" cx="1262.83" cy="-214.96" rx="426.27" ry="214.92"/>
<polygon fill="#1d71b8" stroke="transparent" points="963.83,-304.96 963.83,-364.96 1562.83,-364.96 1562.83,-304.96 963.83,-304.96"/>
<polygon fill="none" stroke="#29235c" points="963.83,-304.96 963.83,-364.96 1562.83,-364.96 1562.83,-304.96 963.83,-304.96"/>
<text text-anchor="start" x="1100.63" y="-326.16" font-family="Helvetica,sans-Serif" font-weight="bold" font-size="32.00" fill="#ffffff"> &#160;&#160;&#160;&#160;&#160;&#160;JuniorCamper &#160;&#160;&#160;&#160;&#160;&#160;</text>
<polygon fill="#e7e2dd" stroke="transparent" points="963.83,-244.96 963.83,-304.96 1562.83,-304.96 1562.83,-244.96 963.83,-244.96"/>
<polygon fill="none" stroke="#29235c" points="963.83,-244.96 963.83,-304.96 1562.83,-304.96 1562.83,-244.96 963.83,-244.96"/>
<text text-anchor="start" x="974.83" y="-266.16" font-family="Helvetica,sans-Serif" font-weight="bold" font-size="32.00" fill="#29235c">id</text>
<text text-anchor="start" x="999.72" y="-266.16" font-family="Helvetica,sans-Serif" font-size="32.00" fill="#29235c"> &#160;&#160;&#160;</text>
<text text-anchor="start" x="1409.61" y="-266.16" font-family="Helvetica,sans-Serif" font-style="italic" font-size="32.00" fill="#29235c">INTEGER</text>
<polygon fill="#e7e2dd" stroke="transparent" points="963.83,-184.96 963.83,-244.96 1562.83,-244.96 1562.83,-184.96 963.83,-184.96"/>
<polygon fill="none" stroke="#29235c" points="963.83,-184.96 963.83,-244.96 1562.83,-244.96 1562.83,-184.96 963.83,-184.96"/>
<text text-anchor="start" x="974.83" y="-205.16" font-family="Helvetica,sans-Serif" font-size="32.00" fill="#29235c">name &#160;&#160;&#160;</text>
<text text-anchor="start" x="1395.4" y="-206.16" font-family="Helvetica,sans-Serif" font-style="italic" font-size="32.00" fill="#29235c">VARCHAR</text>
<polygon fill="#e7e2dd" stroke="transparent" points="963.83,-124.96 963.83,-184.96 1562.83,-184.96 1562.83,-124.96 963.83,-124.96"/>
<polygon fill="none" stroke="#29235c" points="963.83,-124.96 963.83,-184.96 1562.83,-184.96 1562.83,-124.96 963.83,-124.96"/>
<text text-anchor="start" x="974.83" y="-145.16" font-family="Helvetica,sans-Serif" font-size="32.00" fill="#29235c">emergency_contact_name &#160;&#160;&#160;</text>
<text text-anchor="start" x="1395.4" y="-146.16" font-family="Helvetica,sans-Serif" font-style="italic" font-size="32.00" fill="#29235c">VARCHAR</text>
<polygon fill="#e7e2dd" stroke="transparent" points="963.83,-64.96 963.83,-124.96 1562.83,-124.96 1562.83,-64.96 963.83,-64.96"/>
<polygon fill="none" stroke="#29235c" points="963.83,-64.96 963.83,-124.96 1562.83,-124.96 1562.83,-64.96 963.83,-64.96"/>
<text text-anchor="start" x="974.58" y="-85.16" font-family="Helvetica,sans-Serif" font-size="32.00" fill="#29235c">emergency_contact_phone &#160;&#160;&#160;</text>
<text text-anchor="start" x="1395.62" y="-86.16" font-family="Helvetica,sans-Serif" font-style="italic" font-size="32.00" fill="#29235c">VARCHAR</text>
<polygon fill="none" stroke="#29235c" stroke-width="2" points="962.33,-63.96 962.33,-365.96 1563.33,-365.96 1563.33,-63.96 962.33,-63.96"/>
</g>
<!-- CampAttendance&#45;&gt;JuniorCamper -->
<!-- CampAttendance&#45;&gt;JuniorCamper -->
<g id="edge10" class="edge">
<title>CampAttendance:e&#45;&gt;JuniorCamper:w</title>
<path fill="none" stroke="#29235c" stroke-width="3" d="M598.22,-619.96C817.83,-619.96 742.21,-285.66 952.59,-275.21"/>
<polygon fill="#29235c" stroke="#29235c" stroke-width="3" points="952.92,-278.7 962.83,-274.96 952.75,-271.71 952.92,-278.7"/>
<text text-anchor="middle" x="956.61" y="-246.16" font-family="Helvetica,sans-Serif" font-size="32.00" fill="#29235c">*</text>
<text text-anchor="middle" x="607.12" y="-591.16" font-family="Helvetica,sans-Serif" font-size="32.00" fill="#29235c">1</text>
</g>
<!-- Instructor -->
<g id="Instructor" class="node">
<title>Instructor</title>
<ellipse fill="none" stroke="black" stroke-width="0" cx="1262.83" cy="-1012.96" rx="315.24" ry="172.57"/>
<polygon fill="#1d71b8" stroke="transparent" points="1041.83,-1072.96 1041.83,-1132.96 1483.83,-1132.96 1483.83,-1072.96 1041.83,-1072.96"/>
<polygon fill="none" stroke="#29235c" points="1041.83,-1072.96 1041.83,-1132.96 1483.83,-1132.96 1483.83,-1072.96 1041.83,-1072.96"/>
<text text-anchor="start" x="1133.91" y="-1094.16" font-family="Helvetica,sans-Serif" font-weight="bold" font-size="32.00" fill="#ffffff"> &#160;&#160;&#160;&#160;&#160;&#160;Instructor &#160;&#160;&#160;&#160;&#160;&#160;</text>
<polygon fill="#e7e2dd" stroke="transparent" points="1041.83,-1012.96 1041.83,-1072.96 1483.83,-1072.96 1483.83,-1012.96 1041.83,-1012.96"/>
<polygon fill="none" stroke="#29235c" points="1041.83,-1012.96 1041.83,-1072.96 1483.83,-1072.96 1483.83,-1012.96 1041.83,-1012.96"/>
<text text-anchor="start" x="1052.83" y="-1034.16" font-family="Helvetica,sans-Serif" font-weight="bold" font-size="32.00" fill="#29235c">id</text>
<text text-anchor="start" x="1077.72" y="-1034.16" font-family="Helvetica,sans-Serif" font-size="32.00" fill="#29235c"> &#160;&#160;&#160;</text>
<text text-anchor="start" x="1330.61" y="-1034.16" font-family="Helvetica,sans-Serif" font-style="italic" font-size="32.00" fill="#29235c">INTEGER</text>
<polygon fill="#e7e2dd" stroke="transparent" points="1041.83,-952.96 1041.83,-1012.96 1483.83,-1012.96 1483.83,-952.96 1041.83,-952.96"/>
<polygon fill="none" stroke="#29235c" points="1041.83,-952.96 1041.83,-1012.96 1483.83,-1012.96 1483.83,-952.96 1041.83,-952.96"/>
<text text-anchor="start" x="1052.83" y="-973.16" font-family="Helvetica,sans-Serif" font-size="32.00" fill="#29235c">name &#160;&#160;&#160;</text>
<text text-anchor="start" x="1316.4" y="-974.16" font-family="Helvetica,sans-Serif" font-style="italic" font-size="32.00" fill="#29235c">VARCHAR</text>
<polygon fill="#e7e2dd" stroke="transparent" points="1041.83,-892.96 1041.83,-952.96 1483.83,-952.96 1483.83,-892.96 1041.83,-892.96"/>
<polygon fill="none" stroke="#29235c" points="1041.83,-892.96 1041.83,-952.96 1483.83,-952.96 1483.83,-892.96 1041.83,-892.96"/>
<text text-anchor="start" x="1052.34" y="-913.16" font-family="Helvetica,sans-Serif" font-size="32.00" fill="#29235c">contact_number &#160;&#160;&#160;</text>
<text text-anchor="start" x="1316.62" y="-914.16" font-family="Helvetica,sans-Serif" font-style="italic" font-size="32.00" fill="#29235c">VARCHAR</text>
<polygon fill="none" stroke="#29235c" stroke-width="2" points="1040.83,-891.96 1040.83,-1133.96 1484.83,-1133.96 1484.83,-891.96 1040.83,-891.96"/>
</g>
<!-- CampAttendance&#45;&gt;Instructor -->
<!-- CampAttendance&#45;&gt;Instructor -->
<g id="edge12" class="edge">
<title>CampAttendance:e&#45;&gt;Instructor:w</title>
<path fill="none" stroke="#29235c" stroke-width="3" d="M598.22,-559.96C885.98,-559.96 752.88,-1031.71 1030.77,-1042.76"/>
<polygon fill="#29235c" stroke="#29235c" stroke-width="3" points="1030.76,-1046.26 1040.83,-1042.96 1030.9,-1039.26 1030.76,-1046.26"/>
<text text-anchor="middle" x="1034.61" y="-1014.16" font-family="Helvetica,sans-Serif" font-size="32.00" fill="#29235c">*</text>
<text text-anchor="middle" x="607.12" y="-531.16" font-family="Helvetica,sans-Serif" font-size="32.00" fill="#29235c">1</text>
</g>
<!-- CampPriceList -->
<g id="CampPriceList" class="node">
<title>CampPriceList</title>
<ellipse fill="none" stroke="black" stroke-width="0" cx="1262.83" cy="-649.96" rx="308.1" ry="172.57"/>
<polygon fill="#1d71b8" stroke="transparent" points="1046.83,-709.96 1046.83,-769.96 1478.83,-769.96 1478.83,-709.96 1046.83,-709.96"/>
<polygon fill="none" stroke="#29235c" points="1046.83,-709.96 1046.83,-769.96 1478.83,-769.96 1478.83,-709.96 1046.83,-709.96"/>
<text text-anchor="start" x="1096.58" y="-731.16" font-family="Helvetica,sans-Serif" font-weight="bold" font-size="32.00" fill="#ffffff"> &#160;&#160;&#160;&#160;&#160;&#160;CampPriceList &#160;&#160;&#160;&#160;&#160;&#160;</text>
<polygon fill="#e7e2dd" stroke="transparent" points="1046.83,-649.96 1046.83,-709.96 1478.83,-709.96 1478.83,-649.96 1046.83,-649.96"/>
<polygon fill="none" stroke="#29235c" points="1046.83,-649.96 1046.83,-709.96 1478.83,-709.96 1478.83,-649.96 1046.83,-649.96"/>
<text text-anchor="start" x="1057.83" y="-671.16" font-family="Helvetica,sans-Serif" font-weight="bold" font-size="32.00" fill="#29235c">id</text>
<text text-anchor="start" x="1082.72" y="-671.16" font-family="Helvetica,sans-Serif" font-size="32.00" fill="#29235c"> &#160;&#160;&#160;</text>
<text text-anchor="start" x="1325.61" y="-671.16" font-family="Helvetica,sans-Serif" font-style="italic" font-size="32.00" fill="#29235c">INTEGER</text>
<polygon fill="#e7e2dd" stroke="transparent" points="1046.83,-589.96 1046.83,-649.96 1478.83,-649.96 1478.83,-589.96 1046.83,-589.96"/>
<polygon fill="none" stroke="#29235c" points="1046.83,-589.96 1046.83,-649.96 1478.83,-649.96 1478.83,-589.96 1046.83,-589.96"/>
<text text-anchor="start" x="1057.67" y="-610.16" font-family="Helvetica,sans-Serif" font-size="32.00" fill="#29235c">package_name &#160;&#160;&#160;</text>
<text text-anchor="start" x="1311.62" y="-611.16" font-family="Helvetica,sans-Serif" font-style="italic" font-size="32.00" fill="#29235c">VARCHAR</text>
<polygon fill="#e7e2dd" stroke="transparent" points="1046.83,-529.96 1046.83,-589.96 1478.83,-589.96 1478.83,-529.96 1046.83,-529.96"/>
<polygon fill="none" stroke="#29235c" points="1046.83,-529.96 1046.83,-589.96 1478.83,-589.96 1478.83,-529.96 1046.83,-529.96"/>
<text text-anchor="start" x="1057.83" y="-550.16" font-family="Helvetica,sans-Serif" font-size="32.00" fill="#29235c">price &#160;&#160;&#160;</text>
<text text-anchor="start" x="1364.71" y="-551.16" font-family="Helvetica,sans-Serif" font-style="italic" font-size="32.00" fill="#29235c">FLOAT</text>
<polygon fill="none" stroke="#29235c" stroke-width="2" points="1045.83,-528.96 1045.83,-770.96 1479.83,-770.96 1479.83,-528.96 1045.83,-528.96"/>
</g>
<!-- CampAttendance&#45;&gt;CampPriceList -->
<!-- CampAttendance&#45;&gt;CampPriceList -->
<g id="edge14" class="edge">
<title>CampAttendance:e&#45;&gt;CampPriceList:w</title>
<path fill="none" stroke="#29235c" stroke-width="3" d="M598.22,-499.96C809.19,-499.96 830.75,-674.21 1035.62,-679.82"/>
<polygon fill="#29235c" stroke="#29235c" stroke-width="3" points="1035.78,-683.32 1045.83,-679.96 1035.88,-676.32 1035.78,-683.32"/>
<text text-anchor="middle" x="1039.61" y="-651.16" font-family="Helvetica,sans-Serif" font-size="32.00" fill="#29235c">*</text>
<text text-anchor="middle" x="607.12" y="-471.16" font-family="Helvetica,sans-Serif" font-size="32.00" fill="#29235c">1</text>
</g>
<!-- Feedback -->
<g id="Feedback" class="node">
<title>Feedback</title>
<ellipse fill="none" stroke="black" stroke-width="0" cx="400.22" cy="-214.96" rx="258.19" ry="172.57"/>
<polygon fill="#1d71b8" stroke="transparent" points="220.22,-274.96 220.22,-334.96 581.22,-334.96 581.22,-274.96 220.22,-274.96"/>
<polygon fill="none" stroke="#29235c" points="220.22,-274.96 220.22,-334.96 581.22,-334.96 581.22,-274.96 220.22,-274.96"/>
<text text-anchor="start" x="268.23" y="-296.16" font-family="Helvetica,sans-Serif" font-weight="bold" font-size="32.00" fill="#ffffff"> &#160;&#160;&#160;&#160;&#160;&#160;Feedback &#160;&#160;&#160;&#160;&#160;&#160;</text>
<polygon fill="#e7e2dd" stroke="transparent" points="220.22,-214.96 220.22,-274.96 581.22,-274.96 581.22,-214.96 220.22,-214.96"/>
<polygon fill="none" stroke="#29235c" points="220.22,-214.96 220.22,-274.96 581.22,-274.96 581.22,-214.96 220.22,-214.96"/>
<text text-anchor="start" x="231.22" y="-236.16" font-family="Helvetica,sans-Serif" font-weight="bold" font-size="32.00" fill="#29235c">id</text>
<text text-anchor="start" x="256.11" y="-236.16" font-family="Helvetica,sans-Serif" font-size="32.00" fill="#29235c"> &#160;&#160;&#160;</text>
<text text-anchor="start" x="428" y="-236.16" font-family="Helvetica,sans-Serif" font-style="italic" font-size="32.00" fill="#29235c">INTEGER</text>
<polygon fill="#e7e2dd" stroke="transparent" points="220.22,-154.96 220.22,-214.96 581.22,-214.96 581.22,-154.96 220.22,-154.96"/>
<polygon fill="none" stroke="#29235c" points="220.22,-154.96 220.22,-214.96 581.22,-214.96 581.22,-154.96 220.22,-154.96"/>
<text text-anchor="start" x="231.22" y="-175.16" font-family="Helvetica,sans-Serif" font-size="32.00" fill="#29235c">camper_id &#160;&#160;&#160;</text>
<text text-anchor="start" x="428" y="-176.16" font-family="Helvetica,sans-Serif" font-style="italic" font-size="32.00" fill="#29235c">INTEGER</text>
<polygon fill="#e7e2dd" stroke="transparent" points="220.22,-94.96 220.22,-154.96 581.22,-154.96 581.22,-94.96 220.22,-94.96"/>
<polygon fill="none" stroke="#29235c" points="220.22,-94.96 220.22,-154.96 581.22,-154.96 581.22,-94.96 220.22,-94.96"/>
<text text-anchor="start" x="231.15" y="-115.16" font-family="Helvetica,sans-Serif" font-size="32.00" fill="#29235c">comments &#160;&#160;&#160;</text>
<text text-anchor="start" x="414.01" y="-116.16" font-family="Helvetica,sans-Serif" font-style="italic" font-size="32.00" fill="#29235c">VARCHAR</text>
<polygon fill="none" stroke="#29235c" stroke-width="2" points="218.72,-93.96 218.72,-335.96 581.72,-335.96 581.72,-93.96 218.72,-93.96"/>
</g>
<!-- Feedback&#45;&gt;JuniorCamper -->
<!-- Feedback&#45;&gt;JuniorCamper -->
<g id="edge16" class="edge">
<title>Feedback:e&#45;&gt;JuniorCamper:w</title>
<path fill="none" stroke="#29235c" stroke-width="3" d="M582.22,-184.96C752.65,-184.96 787.67,-271.48 952.8,-274.86"/>
<polygon fill="#29235c" stroke="#29235c" stroke-width="3" points="952.8,-278.36 962.83,-274.96 952.87,-271.36 952.8,-278.36"/>
<text text-anchor="middle" x="956.61" y="-284.56" font-family="Helvetica,sans-Serif" font-size="32.00" fill="#29235c">*</text>
<text text-anchor="middle" x="591.12" y="-156.16" font-family="Helvetica,sans-Serif" font-size="32.00" fill="#29235c">1</text>
</g>
<!-- RacingSchedule -->
<g id="RacingSchedule" class="node">
<title>RacingSchedule</title>
<ellipse fill="none" stroke="black" stroke-width="0" cx="400.22" cy="-1877.96" rx="277.79" ry="214.92"/>
<polygon fill="#1d71b8" stroke="transparent" points="206.22,-1967.96 206.22,-2027.96 595.22,-2027.96 595.22,-1967.96 206.22,-1967.96"/>
<polygon fill="none" stroke="#29235c" points="206.22,-1967.96 206.22,-2027.96 595.22,-2027.96 595.22,-1967.96 206.22,-1967.96"/>
<text text-anchor="start" x="222" y="-1989.16" font-family="Helvetica,sans-Serif" font-weight="bold" font-size="32.00" fill="#ffffff"> &#160;&#160;&#160;&#160;&#160;&#160;RacingSchedule &#160;&#160;&#160;&#160;&#160;&#160;</text>
<polygon fill="#e7e2dd" stroke="transparent" points="206.22,-1907.96 206.22,-1967.96 595.22,-1967.96 595.22,-1907.96 206.22,-1907.96"/>
<polygon fill="none" stroke="#29235c" points="206.22,-1907.96 206.22,-1967.96 595.22,-1967.96 595.22,-1907.96 206.22,-1907.96"/>
<text text-anchor="start" x="217.22" y="-1929.16" font-family="Helvetica,sans-Serif" font-weight="bold" font-size="32.00" fill="#29235c">id</text>
<text text-anchor="start" x="242.11" y="-1929.16" font-family="Helvetica,sans-Serif" font-size="32.00" fill="#29235c"> &#160;&#160;&#160;</text>
<text text-anchor="start" x="442" y="-1929.16" font-family="Helvetica,sans-Serif" font-style="italic" font-size="32.00" fill="#29235c">INTEGER</text>
<polygon fill="#e7e2dd" stroke="transparent" points="206.22,-1847.96 206.22,-1907.96 595.22,-1907.96 595.22,-1847.96 206.22,-1847.96"/>
<polygon fill="none" stroke="#29235c" points="206.22,-1847.96 206.22,-1907.96 595.22,-1907.96 595.22,-1847.96 206.22,-1847.96"/>
<text text-anchor="start" x="216.9" y="-1868.16" font-family="Helvetica,sans-Serif" font-size="32.00" fill="#29235c">event_name &#160;&#160;&#160;</text>
<text text-anchor="start" x="428.01" y="-1869.16" font-family="Helvetica,sans-Serif" font-style="italic" font-size="32.00" fill="#29235c">VARCHAR</text>
<polygon fill="#e7e2dd" stroke="transparent" points="206.22,-1787.96 206.22,-1847.96 595.22,-1847.96 595.22,-1787.96 206.22,-1787.96"/>
<polygon fill="none" stroke="#29235c" points="206.22,-1787.96 206.22,-1847.96 595.22,-1847.96 595.22,-1787.96 206.22,-1787.96"/>
<text text-anchor="start" x="217.22" y="-1808.16" font-family="Helvetica,sans-Serif" font-size="32.00" fill="#29235c">event_date &#160;&#160;&#160;</text>
<text text-anchor="start" x="422.46" y="-1809.16" font-family="Helvetica,sans-Serif" font-style="italic" font-size="32.00" fill="#29235c">DATETIME</text>
<polygon fill="#e7e2dd" stroke="transparent" points="206.22,-1727.96 206.22,-1787.96 595.22,-1787.96 595.22,-1727.96 206.22,-1727.96"/>
<polygon fill="none" stroke="#29235c" points="206.22,-1727.96 206.22,-1787.96 595.22,-1787.96 595.22,-1727.96 206.22,-1727.96"/>
<text text-anchor="start" x="217.22" y="-1748.16" font-family="Helvetica,sans-Serif" font-size="32.00" fill="#29235c">sailboat_id &#160;&#160;&#160;</text>
<text text-anchor="start" x="442" y="-1749.16" font-family="Helvetica,sans-Serif" font-style="italic" font-size="32.00" fill="#29235c">INTEGER</text>
<polygon fill="none" stroke="#29235c" stroke-width="2" points="204.72,-1726.96 204.72,-2028.96 595.72,-2028.96 595.72,-1726.96 204.72,-1726.96"/>
</g>
<!-- RacingSchedule&#45;&gt;Sailboat -->
<!-- RacingSchedule&#45;&gt;Sailboat -->
<g id="edge18" class="edge">
<title>RacingSchedule:e&#45;&gt;Sailboat:w</title>
<path fill="none" stroke="#29235c" stroke-width="3" d="M596.22,-1757.96C835.51,-1757.96 868.21,-1932.9 1101.65,-1937.85"/>
<polygon fill="#29235c" stroke="#29235c" stroke-width="3" points="1101.79,-1941.35 1111.83,-1937.96 1101.87,-1934.36 1101.79,-1941.35"/>
<text text-anchor="middle" x="1118.05" y="-1909.16" font-family="Helvetica,sans-Serif" font-size="32.00" fill="#29235c">*</text>
<text text-anchor="middle" x="605.12" y="-1729.16" font-family="Helvetica,sans-Serif" font-size="32.00" fill="#29235c">1</text>
</g>
<!-- SailingEvent -->
<g id="SailingEvent" class="node">
<title>SailingEvent</title>
<ellipse fill="none" stroke="black" stroke-width="0" cx="400.22" cy="-1067.96" rx="268.9" ry="214.92"/>
<polygon fill="#1d71b8" stroke="transparent" points="212.22,-1157.96 212.22,-1217.96 588.22,-1217.96 588.22,-1157.96 212.22,-1157.96"/>
<polygon fill="none" stroke="#29235c" points="212.22,-1157.96 212.22,-1217.96 588.22,-1217.96 588.22,-1157.96 212.22,-1157.96"/>
<text text-anchor="start" x="249.06" y="-1179.16" font-family="Helvetica,sans-Serif" font-weight="bold" font-size="32.00" fill="#ffffff"> &#160;&#160;&#160;&#160;&#160;&#160;SailingEvent &#160;&#160;&#160;&#160;&#160;&#160;</text>
<polygon fill="#e7e2dd" stroke="transparent" points="212.22,-1097.96 212.22,-1157.96 588.22,-1157.96 588.22,-1097.96 212.22,-1097.96"/>
<polygon fill="none" stroke="#29235c" points="212.22,-1097.96 212.22,-1157.96 588.22,-1157.96 588.22,-1097.96 212.22,-1097.96"/>
<text text-anchor="start" x="223.22" y="-1119.16" font-family="Helvetica,sans-Serif" font-weight="bold" font-size="32.00" fill="#29235c">id</text>
<text text-anchor="start" x="248.11" y="-1119.16" font-family="Helvetica,sans-Serif" font-size="32.00" fill="#29235c"> &#160;&#160;&#160;</text>
<text text-anchor="start" x="435" y="-1119.16" font-family="Helvetica,sans-Serif" font-style="italic" font-size="32.00" fill="#29235c">INTEGER</text>
<polygon fill="#e7e2dd" stroke="transparent" points="212.22,-1037.96 212.22,-1097.96 588.22,-1097.96 588.22,-1037.96 212.22,-1037.96"/>
<polygon fill="none" stroke="#29235c" points="212.22,-1037.96 212.22,-1097.96 588.22,-1097.96 588.22,-1037.96 212.22,-1037.96"/>
<text text-anchor="start" x="223.22" y="-1058.16" font-family="Helvetica,sans-Serif" font-size="32.00" fill="#29235c">sailboat_id &#160;&#160;&#160;</text>
<text text-anchor="start" x="435" y="-1059.16" font-family="Helvetica,sans-Serif" font-style="italic" font-size="32.00" fill="#29235c">INTEGER</text>
<polygon fill="#e7e2dd" stroke="transparent" points="212.22,-977.96 212.22,-1037.96 588.22,-1037.96 588.22,-977.96 212.22,-977.96"/>
<polygon fill="none" stroke="#29235c" points="212.22,-977.96 212.22,-1037.96 588.22,-1037.96 588.22,-977.96 212.22,-977.96"/>
<text text-anchor="start" x="223.22" y="-998.16" font-family="Helvetica,sans-Serif" font-size="32.00" fill="#29235c">instructor_id &#160;&#160;&#160;</text>
<text text-anchor="start" x="435" y="-999.16" font-family="Helvetica,sans-Serif" font-style="italic" font-size="32.00" fill="#29235c">INTEGER</text>
<polygon fill="#e7e2dd" stroke="transparent" points="212.22,-917.96 212.22,-977.96 588.22,-977.96 588.22,-917.96 212.22,-917.96"/>
<polygon fill="none" stroke="#29235c" points="212.22,-917.96 212.22,-977.96 588.22,-977.96 588.22,-917.96 212.22,-917.96"/>
<text text-anchor="start" x="222.78" y="-938.16" font-family="Helvetica,sans-Serif" font-size="32.00" fill="#29235c">event_date &#160;&#160;&#160;</text>
<text text-anchor="start" x="415.84" y="-939.16" font-family="Helvetica,sans-Serif" font-style="italic" font-size="32.00" fill="#29235c">DATETIME</text>
<polygon fill="none" stroke="#29235c" stroke-width="2" points="211.22,-916.96 211.22,-1218.96 589.22,-1218.96 589.22,-916.96 211.22,-916.96"/>
</g>
<!-- SailingEvent&#45;&gt;Sailboat -->
<!-- SailingEvent&#45;&gt;Sailboat -->
<g id="edge22" class="edge">
<title>SailingEvent:e&#45;&gt;Sailboat:w</title>
<path fill="none" stroke="#29235c" stroke-width="3" d="M589.22,-1067.96C725.74,-1067.96 743.73,-1166.79 800.44,-1290.96 867.98,-1438.83 767.91,-1507.55 836.44,-1654.96 908.98,-1811 935.3,-1933.11 1101.72,-1937.82"/>
<polygon fill="#29235c" stroke="#29235c" stroke-width="3" points="1101.78,-1941.32 1111.83,-1937.96 1101.88,-1934.32 1101.78,-1941.32"/>
<text text-anchor="middle" x="1118.05" y="-1947.56" font-family="Helvetica,sans-Serif" font-size="32.00" fill="#29235c">*</text>
<text text-anchor="middle" x="598.12" y="-1039.16" font-family="Helvetica,sans-Serif" font-size="32.00" fill="#29235c">1</text>
</g>
<!-- SailingEvent&#45;&gt;Instructor -->
<!-- SailingEvent&#45;&gt;Instructor -->
<g id="edge20" class="edge">
<title>SailingEvent:e&#45;&gt;Instructor:w</title>
<path fill="none" stroke="#29235c" stroke-width="3" d="M589.22,-1007.96C787.1,-1007.96 837.8,-1041.77 1030.64,-1042.93"/>
<polygon fill="#29235c" stroke="#29235c" stroke-width="3" points="1030.82,-1046.43 1040.83,-1042.96 1030.84,-1039.43 1030.82,-1046.43"/>
<text text-anchor="middle" x="1034.61" y="-1052.56" font-family="Helvetica,sans-Serif" font-size="32.00" fill="#29235c">*</text>
<text text-anchor="middle" x="598.12" y="-979.16" font-family="Helvetica,sans-Serif" font-size="32.00" fill="#29235c">1</text>
</g>
<!-- ServiceSchedule -->
<g id="ServiceSchedule" class="node">
<title>ServiceSchedule</title>
<ellipse fill="none" stroke="black" stroke-width="0" cx="400.22" cy="-2282.96" rx="333.09" ry="172.57"/>
<polygon fill="#1d71b8" stroke="transparent" points="167.22,-2342.96 167.22,-2402.96 634.22,-2402.96 634.22,-2342.96 167.22,-2342.96"/>
<polygon fill="none" stroke="#29235c" points="167.22,-2342.96 167.22,-2402.96 634.22,-2402.96 634.22,-2342.96 167.22,-2342.96"/>
<text text-anchor="start" x="218.44" y="-2364.16" font-family="Helvetica,sans-Serif" font-weight="bold" font-size="32.00" fill="#ffffff"> &#160;&#160;&#160;&#160;&#160;&#160;ServiceSchedule &#160;&#160;&#160;&#160;&#160;&#160;</text>
<polygon fill="#e7e2dd" stroke="transparent" points="167.22,-2282.96 167.22,-2342.96 634.22,-2342.96 634.22,-2282.96 167.22,-2282.96"/>
<polygon fill="none" stroke="#29235c" points="167.22,-2282.96 167.22,-2342.96 634.22,-2342.96 634.22,-2282.96 167.22,-2282.96"/>
<text text-anchor="start" x="178.22" y="-2304.16" font-family="Helvetica,sans-Serif" font-weight="bold" font-size="32.00" fill="#29235c">id</text>
<text text-anchor="start" x="203.11" y="-2304.16" font-family="Helvetica,sans-Serif" font-size="32.00" fill="#29235c"> &#160;&#160;&#160;</text>
<text text-anchor="start" x="481" y="-2304.16" font-family="Helvetica,sans-Serif" font-style="italic" font-size="32.00" fill="#29235c">INTEGER</text>
<polygon fill="#e7e2dd" stroke="transparent" points="167.22,-2222.96 167.22,-2282.96 634.22,-2282.96 634.22,-2222.96 167.22,-2222.96"/>
<polygon fill="none" stroke="#29235c" points="167.22,-2222.96 167.22,-2282.96 634.22,-2282.96 634.22,-2222.96 167.22,-2222.96"/>
<text text-anchor="start" x="178.22" y="-2243.16" font-family="Helvetica,sans-Serif" font-size="32.00" fill="#29235c">sailboat_id &#160;&#160;&#160;</text>
<text text-anchor="start" x="481" y="-2244.16" font-family="Helvetica,sans-Serif" font-style="italic" font-size="32.00" fill="#29235c">INTEGER</text>
<polygon fill="#e7e2dd" stroke="transparent" points="167.22,-2162.96 167.22,-2222.96 634.22,-2222.96 634.22,-2162.96 167.22,-2162.96"/>
<polygon fill="none" stroke="#29235c" points="167.22,-2162.96 167.22,-2222.96 634.22,-2222.96 634.22,-2162.96 167.22,-2162.96"/>
<text text-anchor="start" x="177.96" y="-2183.16" font-family="Helvetica,sans-Serif" font-size="32.00" fill="#29235c">last_service_date &#160;&#160;&#160;</text>
<text text-anchor="start" x="461.84" y="-2184.16" font-family="Helvetica,sans-Serif" font-style="italic" font-size="32.00" fill="#29235c">DATETIME</text>
<polygon fill="none" stroke="#29235c" stroke-width="2" points="165.72,-2161.96 165.72,-2403.96 634.72,-2403.96 634.72,-2161.96 165.72,-2161.96"/>
</g>
<!-- ServiceSchedule&#45;&gt;Sailboat -->
<!-- ServiceSchedule&#45;&gt;Sailboat -->
<g id="edge24" class="edge">
<title>ServiceSchedule:e&#45;&gt;Sailboat:w</title>
<path fill="none" stroke="#29235c" stroke-width="3" d="M635.22,-2252.96C885.66,-2252.96 858.72,-1946.51 1101.57,-1938.14"/>
<polygon fill="#29235c" stroke="#29235c" stroke-width="3" points="1101.89,-1941.63 1111.83,-1937.96 1101.77,-1934.63 1101.89,-1941.63"/>
<text text-anchor="middle" x="1105.61" y="-1909.16" font-family="Helvetica,sans-Serif" font-size="32.00" fill="#29235c">*</text>
<text text-anchor="middle" x="644.12" y="-2262.56" font-family="Helvetica,sans-Serif" font-size="32.00" fill="#29235c">1</text>
</g>
</g>
</svg>
